<svg width="24" height="24" viewBox="0 0 24 24" fill="none" xmlns="http://www.w3.org/2000/svg">
<path fill-rule="evenodd" clip-rule="evenodd" d="M12 6.75C10.7574 6.75 9.75 7.75736 9.75 9C9.75 10.2426 10.7574 11.25 12 11.25C13.2426 11.25 14.25 10.2426 14.25 9C14.25 7.75736 13.2426 6.75 12 6.75ZM8.25 9C8.25 6.92893 9.92893 5.25 12 5.25C14.0711 5.25 15.75 6.92893 15.75 9C15.75 11.0711 14.0711 12.75 12 12.75C9.92893 12.75 8.25 11.0711 8.25 9Z" fill="#eb5a1e"/>
<path fill-rule="evenodd" clip-rule="evenodd" d="M12 2.75C6.89137 2.75 2.75 6.89137 2.75 12C2.75 17.1086 6.89137 21.25 12 21.25C17.1086 21.25 21.25 17.1086 21.25 12C21.25 6.89137 17.1086 2.75 12 2.75ZM1.25 12C1.25 6.06294 6.06294 1.25 12 1.25C17.9371 1.25 22.75 6.06294 22.75 12C22.75 17.9371 17.9371 22.75 12 22.75C6.06294 22.75 1.25 17.9371 1.25 12Z" fill="#eb5a1e"/>
<path fill-rule="evenodd" clip-rule="evenodd" d="M7.7682 16.9363C7.10967 17.6192 6.85737 18.6297 6.77968 20.0412C6.75691 20.4548 6.40318 20.7716 5.98959 20.7489C5.57601 20.7261 5.25918 20.3724 5.28195 19.9588C5.36341 18.4788 5.63332 16.9893 6.68842 15.8951C7.75257 14.7915 9.45421 14.25 12 14.25C14.5458 14.25 16.2474 14.7915 17.3116 15.8951C18.3667 16.9893 18.6366 18.4788 18.7181 19.9588C18.7408 20.3724 18.424 20.7261 18.0104 20.7489C17.5968 20.7716 17.2431 20.4548 17.2203 20.0412C17.1426 18.6297 16.8903 17.6192 16.2318 16.9363C15.5823 16.2628 14.379 15.75 12 15.75C9.62104 15.75 8.41766 16.2628 7.7682 16.9363Z" fill="#eb5a1e"/>
</svg>
